<svg viewBox="121 123 258 254" xmlns:xlink="http://www.w3.org/1999/xlink" xmlns="http://www.w3.org/2000/svg" data-name="Layer 1" id="Layer_1" style="max-height: 500px" width="258" height="254">
  <defs>
    <style>
      .cls-1 {
        fill: url(#linear-gradient);
      }

      .cls-2 {
        fill: url(#linear-gradient-3);
      }

      .cls-3 {
        fill: url(#linear-gradient-4);
      }

      .cls-4 {
        fill: url(#linear-gradient-2);
      }

      .cls-5 {
        fill: url(#linear-gradient-5);
      }
    </style>
    <linearGradient gradientUnits="userSpaceOnUse" y2="250" x2="367.96" y1="250" x1="126.12" id="linear-gradient">
      <stop stop-color="#8f1eb3" offset="0"/>
      <stop stop-color="#3e1599" offset="1"/>
    </linearGradient>
    <linearGradient xlink:href="#linear-gradient" y2="226.25" x2="367.96" y1="226.25" x1="126.12" id="linear-gradient-2"/>
    <linearGradient xlink:href="#linear-gradient" y2="226.25" x2="367.96" y1="226.25" x1="126.12" id="linear-gradient-3"/>
    <linearGradient xlink:href="#linear-gradient" y2="226.25" x2="367.96" y1="226.25" x1="126.12" id="linear-gradient-4"/>
    <linearGradient xlink:href="#linear-gradient" y2="226.25" x2="367.96" y1="226.25" x1="126.12" id="linear-gradient-5"/>
  </defs>
  <path d="m369.26,208.99c-1.74-41.88-36.35-75.41-78.64-75.41h-5.27c-1.21-5.04-5.75-8.79-11.17-8.79h-48.38c-5.41,0-9.93,3.75-11.15,8.79h-5.27c-42.33,0-76.93,33.55-78.66,75.45-4.72,2.04-8.03,6.72-8.03,12.19v19.46c0,5.43,3.27,10.08,7.95,12.14v113.07c0,3.55,2,6.78,5.17,8.36,1.31.65,2.73.97,4.15.97,2,0,3.98-.63,5.64-1.89l68.9-51.96c-2.28-3.83-3.58-8.29-3.58-13.03,0-2.99.5-5.84,1.46-8.5-.6.26-1.16.6-1.68.99l-61.37,46.32v-93.75c5.64-1.51,9.8-6.67,9.8-12.79v-19.46c0-6.09-4.09-11.18-9.67-12.75,2.02-31.31,28.12-56.16,59.94-56.16h81.22c31.82,0,57.94,24.89,59.94,56.22-5.58,1.55-9.69,6.67-9.69,12.75v19.46c0,5.51,3.38,10.23,8.16,12.23-6.33,26.38-30.12,46.06-58.4,46.06h-32.88c-2.95-4.24-7.86-7-13.42-7h-7.67c-4.52,0-8.61,1.83-11.58,4.8-.69.67-1.31,1.42-1.85,2.2-1.87,2.65-2.95,5.88-2.95,9.37s1.06,6.67,2.91,9.3c2.95,4.26,7.88,7.06,13.46,7.06h7.67c4.52,0,8.61-1.83,11.58-4.8.69-.69,1.33-1.46,1.89-2.26h32.84c38.5,0,70.62-27.8,77.39-64.38,5.38-1.68,9.28-6.7,9.28-12.64v-19.46c0-5.47-3.3-10.16-8.03-12.17Z" class="cls-1"/>
  <path d="m202.11,186.47c-5.16,0-9.34,4.18-9.34,9.34v60.88c0,5.16,4.18,9.34,9.34,9.34s9.34-4.18,9.34-9.34v-60.88c0-5.16-4.18-9.34-9.34-9.34Z" class="cls-4"/>
  <path d="m276.52,256.69v-60.88c0-5.16-4.18-9.34-9.34-9.34s-9.34,4.18-9.34,9.34v60.88c0,5.16,4.18,9.34,9.34,9.34s9.34-4.18,9.34-9.34Z" class="cls-2"/>
  <path d="m243.98,239.43v-26.36c0-5.16-4.18-9.34-9.34-9.34s-9.34,4.18-9.34,9.34v26.36c0,5.16,4.18,9.34,9.34,9.34s9.34-4.18,9.34-9.34Z" class="cls-3"/>
  <path d="m299.72,248.77c5.16,0,9.34-4.18,9.34-9.34v-26.36c0-5.16-4.18-9.34-9.34-9.34s-9.34,4.18-9.34,9.34v26.36c0,5.16,4.18,9.34,9.34,9.34Z" class="cls-5"/>
</svg>