<svg viewBox="37.9575 37.63513513513514 150.32375 46.96864864864865" xmlns="http://www.w3.org/2000/svg" data-name="Layer 1" id="Layer_1" style="max-height: 500px" width="150.32375" height="46.96864864864865">
  <defs>
    <style>
      .cls-1 {
        fill: #020233;
      }
    </style>
  </defs>
  <path d="m45.52,84.13h-6.85v-45.89h17.71c3.4,0,6.31.54,8.74,1.63,2.42,1.09,4.27,2.66,5.55,4.72,1.25,2.06,1.88,4.54,1.88,7.44s-.63,5.41-1.89,7.47c-1.26,2.06-3.1,3.63-5.51,4.71-2.41,1.08-5.33,1.61-8.76,1.61h-10.86v18.3Zm.33-24.72h10.66c3.12,0,5.43-.6,6.95-1.81,1.51-1.21,2.27-3.06,2.27-5.56s-.76-4.36-2.27-5.56-3.83-1.81-6.95-1.81h-10.66v14.75Z" class="cls-1"/>
  <path d="m103.95,70.5c0,3.01-.63,5.55-1.89,7.64-1.26,2.08-3.01,3.63-5.25,4.64-2.17.97-4.51,1.45-7.01,1.45-2.63,0-5-.5-7.11-1.5-2.11-1-3.8-2.5-5.07-4.49-1.32-2.08-1.97-4.66-1.97-7.74v-15.37l6.19-2.6v17.38c0,2.74.69,4.86,2.06,6.34,1.37,1.48,3.34,2.22,5.91,2.22s4.54-.74,5.91-2.22c1.37-1.48,2.06-3.59,2.06-6.34v-14.78l6.19-2.6v17.97Z" class="cls-1"/>
  <path d="m114.28,38.15v45.75h-6.25v-43.12l6.25-2.63Z" class="cls-1"/>
  <path d="m125.15,38.15v45.75h-6.25v-43.12l6.25-2.63Z" class="cls-1"/>
  <path d="m130.15,76c1.36,1.03,2.88,1.82,4.57,2.35,1.69.54,3.68.81,5.96.81s4.26-.36,5.73-1.09c1.47-.72,2.21-1.69,2.21-2.9,0-1.95-1.87-3.21-5.6-3.79l-3.23-.49c-3.29-.5-5.79-1.5-7.49-3-1.7-1.49-2.55-3.42-2.55-5.79,0-1.89.56-3.55,1.68-4.99,1.12-1.44,2.68-2.55,4.67-3.34,2-.77,4.25-1.15,6.75-1.15,3.66,0,6.95.61,9.84,1.84l-.1,5.99c-1.29-.72-2.8-1.34-4.51-1.84-1.71-.5-3.38-.76-5-.76-1.25,0-2.41.16-3.47.48-1.06.32-1.91.77-2.55,1.37-.64.64-.95,1.33-.95,2.07,0,1.01.43,1.77,1.28,2.29.86.52,2.21.94,4.05,1.27l3.19.56c3.47.61,6.05,1.65,7.75,3.09,1.7,1.45,2.55,3.37,2.55,5.76,0,1.93-.61,3.63-1.84,5.09-1.23,1.46-2.96,2.58-5.2,3.37-2.19.79-4.7,1.19-7.5,1.19-1.71,0-3.47-.18-5.27-.54-1.8-.36-3.51-.95-5.14-1.76l.1-5.96.07-.13Z" class="cls-1"/>
  <path d="m180.72,54.52c2.16,1.33,3.85,3.2,5.05,5.61,1.21,2.39,1.81,5.16,1.81,8.29,0,.77-.03,1.5-.1,2.21h-22.94c.35,2.65,1.38,4.73,3.08,6.24,1.7,1.5,3.87,2.25,6.5,2.25,1.51,0,3.05-.27,4.61-.81,1.56-.54,2.98-1.3,4.28-2.29l3,4.28c-1.67,1.38-3.51,2.41-5.51,3.08-2.01.67-4.26,1-6.76,1-3.03,0-5.72-.67-8.06-2.01-2.35-1.34-4.18-3.21-5.5-5.63-1.3-2.41-1.94-5.18-1.94-8.3s.63-5.85,1.89-8.28c1.26-2.42,3.03-4.31,5.32-5.65,2.26-1.34,4.88-2.01,7.87-2.01,2.79,0,5.26.66,7.42,1.99Zm-13.69,5.5c-1.48,1.44-2.4,3.47-2.75,6.11h16.75c-.33-2.61-1.21-4.64-2.65-6.09-1.44-1.45-3.29-2.17-5.55-2.17-2.39,0-4.33.72-5.81,2.16Z" class="cls-1"/>
  <path d="m234.36,38.25l18.79,45.89h-7.37l-4.57-10.53h-21.53l-4.61,10.53h-7.08l17.45-45.89h8.92Zm-4.58,7.54l-7.64,21.36h16.56l-8.92-21.36Z" class="cls-1"/>
  <path d="m262.57,38.15v46.08h-6.78v-43.45l6.78-2.63Z" class="cls-1"/>
</svg>